<?xml version="1.0" encoding="UTF-8" standalone="no"?>
<svg
   xmlns="http://www.w3.org/2000/svg"
   width="27.96196cm"
   height="15.774742cm"
   viewBox="0 0 279.6196 157.74741"
   version="1.1">
  <g
     transform="matrix(0.9681492,0,0,0.9681492,4.03749,2.663331)"
     id="g54">
    <path
       style="opacity:1;fill:#cfd0d4;stroke-width:0.254"
       d="m 248.6522,93.88815 c 0,-1.04775 -0.0448,-1.47638 -0.0996,-0.9525 -0.0548,0.52387 -0.0548,1.38112 0,1.905 0.0548,0.52387 0.0996,0.0952 0.0996,-0.9525 z m 25.02293,-69.53241 c -4.51546,-0.0389 -11.83066,-0.0388 -16.25601,5e-5 -4.42536,0.0389 -0.73091,0.0707 8.20989,0.0707 8.94081,-3e-5 12.56155,-0.0319 8.04612,-0.0707 z m -25.02419,-2.7306 c 0,-1.11761 -0.0456,-1.54321 -0.0992,-0.9458 -0.0536,0.59743 -0.0529,1.51183 0.002,2.03201 0.0546,0.52018 0.0985,0.0314 0.0976,-1.08621 z"
       id="path40" />
    <path
       style="fill:#8a8a8a;stroke-width:0.254"
       d="m 197.03471,95.60263 c -0.53158,-1.17782 -22.73322,-75.2465 -22.73322,-75.84212 0,-0.68159 0.45923,-0.80238 3.05063,-0.80238 2.5813,0 2.79911,0.12615 3.39306,1.9651 0.21493,0.66544 4.74184,16.06889 10.05981,34.22989 5.31798,18.16101 9.78644,33.29457 9.92993,33.63015 0.1605,0.37534 0.35163,0.5194 0.49668,0.37435 0.12969,-0.12969 4.69494,-15.43469 10.145,-34.01114 5.45006,-18.57644 10.09147,-34.26134 10.31424,-34.85533 0.48296,-1.28776 0.75175,-1.3824 3.63788,-1.28096 1.65016,0.058 2.19187,0.16981 2.39601,0.49457 0.20223,0.32172 -2.3604,9.1515 -10.9839,37.846 -6.18622,20.58451 -11.40197,37.79785 -11.59054,38.25188 l -0.34288,0.8255 h -3.70007 -3.70007 z m 38.74126,0.3296 c -0.18199,-0.34005 -0.24468,-12.43683 -0.19944,-38.49028 0.0581,-33.44821 0.11156,-38.02319 0.44696,-38.23521 0.54438,-0.3441 38.23493,-0.33021 38.87869,0.0143 0.42492,0.2274 0.49132,0.54668 0.49132,2.3622 0,1.29409 -0.11692,2.21618 -0.3048,2.40406 -0.23074,0.23073 -4.26157,0.3048 -16.5862,0.3048 -12.32464,0 -16.35547,0.0741 -16.58621,0.3048 -0.45168,0.45169 -0.43929,29.29616 0.0127,29.58871 0.17463,0.11302 6.9469,0.26263 15.04951,0.33249 l 14.732,0.127 v 2.413 2.413 l -14.732,0.127 c -8.10261,0.0699 -14.87488,0.21948 -15.04951,0.3325 -0.24823,0.16065 -0.3175,3.55303 -0.3175,15.54856 0,14.90929 0.014,15.35052 0.49132,15.60601 0.32382,0.17331 5.9773,0.26294 16.5862,0.26294 12.17958,0 16.16903,0.0741 16.39969,0.3048 0.31712,0.31712 0.43162,3.64119 0.15062,4.37342 -0.13874,0.36154 -2.10896,0.40178 -19.67606,0.40178 -19.10314,0 -19.52757,-0.0106 -19.78729,-0.49591 z"
       id="path46" />
    <path
       style="fill:#6c7db5;stroke-width:0.254"
       d="M 42.13682,96.25879 C 42.04372,96.16569 41.96748,78.85324 41.96748,57.78673 V 19.48401 l 0.52908,-0.28316 c 0.37856,-0.2026 4.94915,-0.25426 16.0655,-0.18158 14.95807,0.0978 15.61031,0.12195 17.52117,0.64898 2.87458,0.79283 4.86837,1.93863 6.9275,3.98116 1.29668,1.28622 2.05973,2.31858 2.72791,3.69071 1.79004,3.67593 1.82185,3.95307 1.82185,15.875 0,9.38891 -0.0536,10.86596 -0.44709,12.319 -1.23517,4.56117 -3.94196,7.97155 -7.82966,9.86486 -3.56864,1.73793 -4.38442,1.81914 -18.27224,1.81914 -7.93742,0 -12.39158,0.0922 -12.71071,0.26294 -0.47641,0.25497 -0.49131,0.678 -0.49131,13.95347 0,8.28067 -0.0979,13.94798 -0.24771,14.34206 -0.24278,0.63857 -0.29755,0.65154 -2.75167,0.65154 -1.37717,0 -2.58015,-0.0762 -2.67328,-0.16934 z m 31.37766,-34.6581 c 3.96937,-0.83589 6.59417,-3.42338 7.76484,-7.65442 0.37917,-1.37041 0.43914,-2.8531 0.43914,-10.85813 0,-8.00504 -0.06,-9.48772 -0.43914,-10.85815 -1.17934,-4.26239 -3.67743,-6.70227 -7.74462,-7.5641 -2.30356,-0.48812 -24.93984,-0.54953 -25.42042,-0.069 -0.23143,0.23143 -0.3048,4.71499 -0.3048,18.62665 0,10.07704 0.0762,18.39808 0.16934,18.4912 0.30115,0.30115 24.06806,0.19495 25.53566,-0.1141 z m 25.90781,34.52265 c -0.23436,-0.23437 -0.3048,-9.09483 -0.3048,-38.33587 0,-35.1397 0.0322,-38.0632 0.42285,-38.45391 0.57074,-0.57074 4.7948,-0.46244 5.17068,0.13257 0.1453,0.23001 0.24223,7.13055 0.24458,17.41171 0.003,12.90304 0.0778,17.10456 0.30869,17.33549 0.23125,0.23127 4.53656,0.30388 17.8435,0.30093 9.64628,-0.002 17.67921,-0.0931 17.85094,-0.20225 0.24084,-0.15299 0.32796,-4.13531 0.381,-17.41566 0.0667,-16.70828 0.0833,-17.22797 0.56181,-17.57777 0.63213,-0.46213 4.18151,-0.49392 4.79422,-0.0429 0.40302,0.29664 0.42707,2.83799 0.36605,38.67149 l -0.0653,38.35402 -2.6064,0.0724 c -2.60103,0.0723 -2.60691,0.0711 -2.8575,-0.58803 -0.15664,-0.41201 -0.2511,-7.23703 -0.2511,-18.14274 0,-15.70725 -0.0408,-17.49795 -0.40178,-17.63648 -0.22097,-0.0848 -8.25626,-0.15418 -17.8562,-0.15418 -13.23699,0 -17.52807,0.0736 -17.75922,0.3048 -0.23123,0.23124 -0.3048,4.572 -0.3048,17.98321 0,13.4112 -0.0736,17.75198 -0.3048,17.9832 -0.19241,0.19241 -1.15711,0.3048 -2.6162,0.3048 -1.45909,0 -2.4238,-0.11239 -2.6162,-0.3048 z m 62.07938,-0.097 c -0.0848,-0.22096 -0.15418,-17.47211 -0.15418,-38.33585 0,-35.04924 0.0322,-37.96624 0.42285,-38.35694 0.57075,-0.57074 4.7948,-0.46244 5.17069,0.13257 0.38425,0.60826 0.32864,76.27224 -0.0563,76.65721 -0.19514,0.19513 -1.19058,0.3048 -2.76682,0.3048 -2.01074,0 -2.49029,-0.0737 -2.6162,-0.40179 z"
       id="path48" />
    <path
       style="opacity:1;fill:#5f5f5f;stroke-width:0.254"
       d="m 20.90549,31.25596 c 0.0122,-0.2959 0.0724,-0.35608 0.15345,-0.15346 0.0734,0.18335 0.0643,0.40243 -0.02,0.48683 -0.0844,0.0844 -0.14443,-0.0656 -0.1334,-0.33337 z m 8.71382,-6.96384 c 0,-1.74625 0.0406,-2.46063 0.0902,-1.5875 0.0496,0.87312 0.0496,2.30187 0,3.175 -0.0496,0.87313 -0.0902,0.15875 -0.0902,-1.5875 z m -6.9481,-10.79501 c 0,-0.1397 0.1108,-0.42545 0.24622,-0.635 0.13543,-0.20955 0.24622,-0.2667 0.24622,-0.127 0,0.1397 -0.11079,0.42545 -0.24622,0.635 -0.13542,0.20955 -0.24622,0.2667 -0.24622,0.127 z M 45.84577,8.87609 c 0.24713,-0.0644 0.59003,-0.0602 0.762,0.009 0.17196,0.0696 -0.0302,0.12227 -0.44934,0.11709 -0.4191,-0.005 -0.5598,-0.0621 -0.31266,-0.1265 z m 18.15617,-0.0112 c 0.73342,-0.0513 1.93357,-0.0513 2.667,0 0.73342,0.0513 0.13335,0.0933 -1.3335,0.0933 -1.46685,0 -2.06693,-0.042 -1.3335,-0.0933 z"
       id="path50" />
    <path
       style="fill:#010101;stroke-width:0.254"
       d="m 4.88348,153.26242 c 0.0699,-0.0687 6.69947,-4.51925 14.73249,-9.89022 8.03302,-5.37097 17.06272,-11.60109 20.066,-13.84472 17.88441,-13.36072 22.56383,-17.47739 26.48469,-23.29967 2.71825,-4.03647 3.62828,-6.70558 3.43349,-10.07045 -0.24814,-4.28654 -2.81055,-7.59357 -9.21767,-11.89623 -1.9558,-1.31342 -3.66529,-2.4857 -3.79888,-2.60508 -0.47974,-0.42876 7.14739,0.50845 10.78389,1.32509 9.15508,2.05593 14.16136,6.0428 15.25214,12.14641 0.2702,1.51195 0.24649,1.90395 -0.21739,3.59432 -0.958023,3.49097 -2.943919,7.11978 -5.96844,10.89983 -3.075298,3.8435 -7.224388,7.84336 -12.45857,12.01361 -11.376227,9.06383 -25.69948,17.46321 -43.85175,25.71538 -5.38257,2.44696 -15.8434,6.50481 -15.24,5.91173 z M 32.41711,79.46974 C 32.26346,79.3671 31.65253,77.58364 31.0595,75.5065 30.46647,73.42935 29.47751,70.13415 28.86181,68.18382 26.7074,61.35937 24.80376,53.77695 22.90734,44.4666 19.66009,28.52436 20.35453,16.66456 24.99195,8.86557 26.17254,6.88011 28.60319,4.3153 29.45972,4.1512 29.84294,4.0778 33.81408,4.1174 38.28448,4.2392 54.6086,4.68395 72.63158,6.82422 75.07052,8.60762 75.44754,8.8833 72.63257,8.93921 58.68311,8.9331 41.43891,8.9261 38.92088,9.03508 34.78977,9.97245 c -2.27414,0.51601 -3.20473,1.38569 -3.96906,3.70924 -0.90884,2.76286 -1.154,5.12824 -1.13921,10.99148 0.0177,7.00898 0.82348,17.04565 2.39616,29.84499 1.27927,10.41142 1.79362,18.95216 1.39581,23.17752 -0.17973,1.90902 -0.37171,2.23142 -1.05636,1.7741 z"
       id="path52" />
  </g>
</svg>
