<?xml version="1.0" encoding="UTF-8" standalone="no"?>
<svg
   xmlns:dc="http://purl.org/dc/elements/1.1/"
   xmlns:cc="http://creativecommons.org/ns#"
   xmlns:rdf="http://www.w3.org/1999/02/22-rdf-syntax-ns#"
   xmlns:svg="http://www.w3.org/2000/svg"
   xmlns="http://www.w3.org/2000/svg"
   id="svg8"
   version="1.1"
   viewBox="0 0 279.6196 157.74741"
   height="15.774742cm"
   width="27.96196cm">
  <defs
     id="defs2" />
  <metadata
     id="metadata5">
    <rdf:RDF>
      <cc:Work
         rdf:about="">
        <dc:format>image/svg+xml</dc:format>
        <dc:type
           rdf:resource="http://purl.org/dc/dcmitype/StillImage" />
        <dc:title></dc:title>
      </cc:Work>
    </rdf:RDF>
  </metadata>
  <g
     transform="translate(201.31712,-79.253199)"
     id="layer1">
    <g
       transform="translate(-436.64025,-60.091916)"
       id="g125">
      <path
         id="path90"
         d="m 275.25861,268.44335 c 0,-0.0528 0.20003,-0.25277 0.4445,-0.4445 0.40286,-0.31595 0.41185,-0.30696 0.0959,0.0959 -0.33181,0.42311 -0.5404,0.55766 -0.5404,0.34861 z m 7.366,-5.58801 c 0,-0.0528 0.20003,-0.25277 0.4445,-0.4445 0.40286,-0.31595 0.41185,-0.30696 0.0959,0.0959 -0.33181,0.42309 -0.5404,0.55764 -0.5404,0.34859 z m 1.27,-1.01599 c 0,-0.0528 0.20003,-0.25276 0.4445,-0.4445 0.40286,-0.31594 0.41185,-0.30696 0.0959,0.0959 -0.33181,0.42311 -0.5404,0.55766 -0.5404,0.34861 z m 1.27,-1.01599 c 0,-0.0528 0.20003,-0.25277 0.4445,-0.4445 0.40286,-0.31595 0.41185,-0.30696 0.0959,0.0959 -0.33181,0.4231 -0.5404,0.55763 -0.5404,0.3486 z m 18.03401,-2.8251 c 0.3281,-0.34925 0.6537,-0.635 0.72355,-0.635 0.0699,0 -0.14145,0.28575 -0.46955,0.635 -0.32811,0.34925 -0.65371,0.635 -0.72356,0.635 -0.0699,0 0.14145,-0.28576 0.46956,-0.635 z m -11.68401,-2.2549 c 0,-0.0528 0.20003,-0.25277 0.4445,-0.4445 0.40286,-0.31595 0.41185,-0.30696 0.0959,0.0959 -0.33182,0.4231 -0.54041,0.55765 -0.54041,0.3486 z m 14.47801,-0.22796 c 0,-0.0384 0.88582,-0.92425 1.9685,-1.9685 l 1.9685,-1.89864 -1.89865,1.9685 c -1.76341,1.8283 -2.03835,2.08439 -2.03835,1.89864 z m 4.572,-4.85204 c 0,-0.0528 0.20002,-0.25277 0.4445,-0.4445 0.40286,-0.31595 0.41184,-0.30696 0.0959,0.0959 -0.33182,0.4231 -0.5404,0.55765 -0.5404,0.3486 z m -12.319,-1.4281 c 0.25285,-0.2794 0.51688,-0.508 0.58673,-0.508 0.0699,0 -0.0799,0.2286 -0.33273,0.508 -0.25286,0.2794 -0.51689,0.508 -0.58674,0.508 -0.0699,0 0.0799,-0.2286 0.33274,-0.508 z m 1.143,-1.3659 c 0,-0.0528 0.20002,-0.25277 0.4445,-0.4445 0.40285,-0.31595 0.41184,-0.30696 0.0959,0.0959 -0.33182,0.4231 -0.5404,0.55765 -0.5404,0.3486 z m 211.4134,-14.6361 c 0,-1.04775 0.0448,-1.47638 0.0996,-0.9525 0.0548,0.52387 0.0548,1.38112 0,1.905 -0.0548,0.52387 -0.0996,0.0952 -0.0996,-0.9525 z m -210.02836,-5.3975 -1.00404,-1.0795 1.0795,1.00405 c 0.59372,0.55222 1.0795,1.038 1.0795,1.0795 0,0.19217 -0.2212,-1.3e-4 -1.15496,-1.00405 z m 14.09528,0.127 -0.87532,-0.9525 0.9525,0.87532 c 0.52387,0.48143 0.9525,0.91006 0.9525,0.9525 0,0.19396 -0.21494,0.0112 -1.02968,-0.87532 z m -21.36995,-7.34901 c 0.18335,-0.0734 0.40243,-0.0644 0.48683,0.02 0.0844,0.0844 -0.0656,0.14443 -0.33337,0.1334 -0.2959,-0.0122 -0.35608,-0.0724 -0.15346,-0.15345 z m -24.55027,-4.65249 c 0,-0.34925 0.0576,-0.49213 0.12811,-0.3175 0.0705,0.17462 0.0705,0.46037 0,0.635 -0.0705,0.17462 -0.12811,0.0318 -0.12811,-0.3175 z m 0.009,-5.715 c 0.005,-0.4191 0.0621,-0.55981 0.1265,-0.31267 0.0644,0.24713 0.0602,0.59003 -0.009,0.762 -0.0696,0.17196 -0.12227,-0.0302 -0.11709,-0.44933 z m -0.28346,-4.33917 c 0.0122,-0.2959 0.0724,-0.35608 0.15345,-0.15346 0.0734,0.18335 0.0643,0.40243 -0.02,0.48683 -0.0844,0.0844 -0.14443,-0.0656 -0.1334,-0.33337 z m -0.254,-3.302 c 0.0122,-0.2959 0.0724,-0.35608 0.15345,-0.15346 0.0734,0.18335 0.0643,0.40243 -0.02,0.48683 -0.0844,0.0844 -0.14443,-0.0656 -0.1334,-0.33337 z m 21.26971,-1.56613 c 3.11782,-0.0404 8.14702,-0.0404 11.176,1.1e-4 3.02898,0.0405 0.47804,0.0736 -5.66876,0.0735 -6.14681,-6e-5 -8.62506,-0.0332 -5.50724,-0.0736 z m 60.19929,-1.77812 c 4.79493,-0.0387 12.56733,-0.0386 17.272,5e-5 4.70467,0.0387 0.78155,0.0703 -8.71805,0.0703 -9.4996,-2e-5 -13.34888,-0.0317 -8.55395,-0.0703 z m -36.53106,-0.66749 c 0,-0.0527 0.20002,-0.25276 0.4445,-0.4445 0.40286,-0.31594 0.41184,-0.30695 0.0959,0.0959 -0.33182,0.42311 -0.5404,0.55766 -0.5404,0.3486 z m 36.53105,-4.92051 c 4.79493,-0.0387 12.56733,-0.0386 17.272,5e-5 4.70467,0.0387 0.78155,0.0703 -8.71805,0.0703 -9.4996,-2e-5 -13.34888,-0.0317 -8.55395,-0.0704 z m -26.82954,-2.73059 c 0.005,-0.4191 0.0621,-0.5598 0.12651,-0.31266 0.0644,0.24713 0.0602,0.59003 -0.009,0.762 -0.0696,0.17196 -0.12227,-0.0302 -0.11709,-0.44934 z m -56.16346,-3.32316 c 0.0122,-0.2959 0.0724,-0.35608 0.15345,-0.15346 0.0734,0.18335 0.0643,0.40243 -0.02,0.48683 -0.0844,0.0844 -0.14443,-0.0656 -0.1334,-0.33337 z m -0.508,-4.826 c 0.0122,-0.2959 0.0724,-0.35608 0.15345,-0.15346 0.0734,0.18335 0.0643,0.40243 -0.02,0.48683 -0.0844,0.0844 -0.14443,-0.0656 -0.1334,-0.33337 z m -0.254,-2.54 c 0.0122,-0.2959 0.0724,-0.35608 0.15345,-0.15346 0.0734,0.18335 0.0643,0.40243 -0.02,0.48683 -0.0844,0.0844 -0.14443,-0.0656 -0.1334,-0.33337 z m -0.254,-2.794 c 0.0122,-0.2959 0.0724,-0.35608 0.15345,-0.15346 0.0734,0.18335 0.0643,0.40243 -0.02,0.48683 -0.0844,0.0844 -0.14443,-0.0656 -0.1334,-0.33337 z m -0.23395,-3.15384 c 0,-0.34925 0.0577,-0.49212 0.12811,-0.3175 0.0705,0.17463 0.0705,0.46038 0,0.635 -0.0705,0.17463 -0.12811,0.0317 -0.12811,-0.3175 z m 57.41341,-0.127 c 0.005,-0.4191 0.0621,-0.5598 0.12651,-0.31266 0.0644,0.24713 0.0602,0.59003 -0.009,0.762 -0.0696,0.17196 -0.12227,-0.0302 -0.11709,-0.44934 z m -66.83146,-2.05316 c 0.0122,-0.2959 0.0724,-0.35608 0.15345,-0.15346 0.0734,0.18335 0.0643,0.40243 -0.02,0.48683 -0.0844,0.0844 -0.14443,-0.0656 -0.1334,-0.33337 z m 9.16405,-1.37584 c 0,-0.34925 0.0577,-0.49212 0.12811,-0.3175 0.0705,0.17463 0.0705,0.46038 0,0.635 -0.0705,0.17463 -0.12811,0.0318 -0.12811,-0.3175 z m -9.34534,-4.699 c 7.6e-4,-1.397 0.0433,-1.9361 0.0948,-1.19799 0.0515,0.73811 0.0509,1.88112 -10e-4,2.54001 -0.0521,0.65889 -0.0943,0.055 -0.0936,-1.34202 z m 9.14625,-2.286 c 5.1e-4,-1.5367 0.0424,-2.1326 0.093,-1.32423 0.0506,0.80838 0.0501,2.06568 -10e-4,2.794 -0.0511,0.72833 -0.0925,0.0669 -0.0919,-1.46977 z m 220.58588,-0.0634 c 4.51546,-0.0389 11.83066,-0.0388 16.25601,5e-5 4.42536,0.0389 0.73091,0.0707 -8.20989,0.0707 -8.94081,-3e-5 -12.56155,-0.0319 -8.04612,-0.0707 z m 25.02419,-2.7306 c 0,-1.11761 0.0456,-1.54321 0.0992,-0.9458 0.0536,0.59743 0.0529,1.51183 -0.002,2.03201 -0.0546,0.52018 -0.0985,0.0314 -0.0976,-1.08621 z M 267.76519,150.42924 c 0.25286,-0.2794 0.51689,-0.508 0.58674,-0.508 0.0699,0 -0.0799,0.2286 -0.33274,0.508 -0.25285,0.2794 -0.51688,0.508 -0.58673,0.508 -0.0698,0 0.0799,-0.2286 0.33273,-0.508 z m 9.7155,-1.94622 c 0.17463,-0.0705 0.46038,-0.0705 0.635,0 0.17463,0.0705 0.0317,0.12812 -0.3175,0.12812 -0.34925,0 -0.49212,-0.0576 -0.3175,-0.12812 z m 10.93052,-0.27333 c 0.73811,-0.0515 1.88111,-0.0509 2.54,0.001 0.65889,0.0521 0.055,0.0942 -1.34202,0.0936 -1.397,-7.7e-4 -1.93609,-0.0433 -1.19798,-0.0948 z m -25.85302,-3.49545 c 0.47391,-0.48895 0.91881,-0.889 0.98866,-0.889 0.0698,0 -0.26075,0.40005 -0.73466,0.889 -0.4739,0.48895 -0.9188,0.889 -0.98865,0.889 -0.0698,0 0.26075,-0.40005 0.73465,-0.889 z m 32.46438,-0.0465 c 0.18335,-0.0734 0.40243,-0.0644 0.48683,0.02 0.0844,0.0844 -0.0656,0.14444 -0.33337,0.13341 -0.2959,-0.0122 -0.35608,-0.0724 -0.15346,-0.15346 z m -2.54,-0.254 c 0.18335,-0.0734 0.40243,-0.0643 0.48683,0.02 0.0844,0.0844 -0.0656,0.14444 -0.33337,0.13341 -0.2959,-0.0122 -0.35608,-0.0724 -0.15346,-0.15346 z m -3.302,-0.254 c 0.18335,-0.0734 0.40243,-0.0643 0.48683,0.02 0.0844,0.0844 -0.0656,0.14444 -0.33337,0.13341 -0.2959,-0.0122 -0.35608,-0.0724 -0.15346,-0.15346 z m -3.556,-0.254 c 0.18335,-0.0734 0.40243,-0.0644 0.48683,0.02 0.0844,0.0844 -0.0656,0.14444 -0.33337,0.13341 -0.2959,-0.0122 -0.35608,-0.0724 -0.15346,-0.15346 z m -4.84188,-0.24871 c 0.17463,-0.0705 0.46038,-0.0705 0.635,0 0.17463,0.0705 0.0317,0.12812 -0.3175,0.12812 -0.34925,0 -0.49212,-0.0577 -0.3175,-0.12812 z m -6.60103,-0.26542 c 0.31595,-0.0608 0.77315,-0.0585 1.016,0.005 0.24284,0.0636 -0.0157,0.11328 -0.57447,0.11046 -0.5588,-0.003 -0.75749,-0.0548 -0.44153,-0.11559 z"
         style="fill:#cfd0d4;stroke-width:0.254" />
      <path
         id="path88"
         d="m 239.34634,292.87676 c 0.0734,-0.11868 0.23978,-0.15004 0.36982,-0.0697 0.33233,0.20539 0.29491,0.28548 -0.13337,0.28548 -0.20341,0 -0.30981,-0.0971 -0.23645,-0.21581 z m 56.61328,-41.1015 c 0.25285,-0.27942 0.51688,-0.50802 0.58673,-0.50802 0.0699,0 -0.0799,0.2286 -0.33273,0.50802 -0.25286,0.2794 -0.51689,0.50799 -0.58674,0.50799 -0.0699,0 0.0799,-0.22859 0.33274,-0.50799 z m 138.88507,-15.9366 c 0.94878,-0.049 2.43468,-0.0486 3.302,7.6e-4 0.86731,0.0495 0.091,0.0896 -1.72507,0.0891 -1.8161,-5e-4 -2.52572,-0.0409 -1.57693,-0.0899 z m 46.19861,-0.002 c 5.26334,-0.0383 13.95014,-0.0383 19.304,-4e-5 5.35389,0.0383 1.04753,0.0697 -9.56967,0.0697 -10.61721,3e-5 -14.99764,-0.0313 -9.73433,-0.0697 z m -84.50296,-38.67162 c 0,-20.88515 0.03,-29.42906 0.0668,-18.9865 0.0367,10.44257 0.0367,27.53042 0,37.97301 -0.0367,10.44257 -0.0668,1.89866 -0.0668,-18.98651 z m -62.23002,-0.12701 c 1e-5,-20.8153 0.0301,-29.29309 0.0668,-18.83956 0.0367,10.45353 0.0367,27.48424 -10e-6,37.84599 -0.0367,10.36177 -0.0668,1.80888 -0.0668,-19.00643 z m 6.09245,20.32001 c 3e-5,-9.63931 0.0316,-13.54571 0.0703,-8.68091 0.0386,4.8648 0.0386,12.75149 -5e-5,17.526 -0.0386,4.77451 -0.0702,0.79422 -0.0702,-8.84508 z m 62.23355,-20.193 c 0,-20.74545 0.0301,-29.23222 0.0668,-18.8595 0.0367,10.37272 0.0367,27.34628 0,37.71901 -0.0367,10.37271 -0.0668,1.88595 -0.0668,-18.85951 z m 82.99781,33.33763 c 4.43547,-0.0389 11.69352,-0.0389 16.129,0 4.43547,0.0389 0.80645,0.0708 -8.0645,0.0708 -8.87095,0 -12.49998,-0.0318 -8.0645,-0.0708 z m -216.70546,-15.4518 c 0.0122,-0.2959 0.0724,-0.35608 0.15345,-0.15346 0.0734,0.18336 0.0643,0.40243 -0.02,0.48683 -0.0844,0.0844 -0.14443,-0.0656 -0.1334,-0.33337 z m 0.0389,-3.40783 c 0,-0.48895 0.0523,-0.68898 0.11616,-0.4445 0.0639,0.24447 0.0639,0.64452 0,0.889 -0.0639,0.24447 -0.11616,0.0444 -0.11616,-0.4445 z m 38.10458,-5.00109 c 0.24447,-0.0639 0.64452,-0.0639 0.889,0 0.24447,0.0639 0.0445,0.11616 -0.4445,0.11616 -0.48895,0 -0.68898,-0.0523 -0.4445,-0.11616 z m 11.3665,-4.52392 c 0.3281,-0.34926 0.6537,-0.635 0.72355,-0.635 0.0699,0 -0.14145,0.28575 -0.46955,0.635 -0.32811,0.34925 -0.65371,0.63499 -0.72356,0.63499 -0.0699,0 0.14145,-0.28575 0.46956,-0.63499 z m -12.0015,-1.05721 c 0.17462,-0.0705 0.46037,-0.0705 0.635,0 0.17462,0.0705 0.0318,0.1281 -0.3175,0.1281 -0.34925,0 -0.49213,-0.0576 -0.3175,-0.1281 z m 178.56201,-2.05413 c 3.94652,-0.0394 10.40447,-0.0394 14.351,0 3.94652,0.0394 0.71755,0.0716 -7.1755,0.0716 -7.89305,0 -11.12203,-0.0322 -7.1755,-0.0716 z m 22.24689,-2.60365 c 0,-1.04777 0.0448,-1.47639 0.0996,-0.9525 0.0548,0.52387 0.0548,1.38112 0,1.90499 -0.0548,0.52389 -0.0996,0.0952 -0.0996,-0.95249 z m -22.51898,-2.7303 c 3.93657,-0.0393 10.45167,-0.0394 14.478,-7e-5 4.02633,0.0393 0.80549,0.0715 -7.15741,0.0715 -7.9629,5e-5 -11.25716,-0.0321 -7.32059,-0.0715 z M 340.40261,176.21002 c 3e-5,-9.3599 0.0317,-13.15204 0.0704,-8.42697 0.0387,4.72505 0.0387,12.38315 -4e-5,17.01799 -0.0388,4.63484 -0.0704,0.76888 -0.0704,-8.59102 z m -17.27902,6.35 c -1.1e-4,-4.33069 0.0345,-6.13805 0.077,-4.01635 0.0424,2.12172 0.0425,5.66501 2e-4,7.874 -0.0423,2.20899 -0.0771,0.47305 -0.0772,-3.85765 z m -6.44289,-9.16516 c 0.0122,-0.2959 0.0724,-0.35608 0.15346,-0.15346 0.0734,0.18335 0.0644,0.40243 -0.02,0.48683 -0.0844,0.0844 -0.14444,-0.0656 -0.13341,-0.33337 z m -51.308,-1.778 c 0.0122,-0.2959 0.0724,-0.35608 0.15345,-0.15346 0.0734,0.18335 0.0643,0.40243 -0.02,0.48683 -0.0844,0.0844 -0.14443,-0.0656 -0.1334,-0.33337 z m -0.23395,-4.67784 c 0,-0.34925 0.0576,-0.49212 0.12811,-0.3175 0.0705,0.17463 0.0705,0.46038 0,0.635 -0.0705,0.17463 -0.12811,0.0317 -0.12811,-0.3175 z m 48.45467,-0.44451 -0.61577,-0.69849 0.6985,0.61578 c 0.65285,0.57553 0.81498,0.78122 0.61577,0.78122 -0.0455,0 -0.35982,-0.31432 -0.6985,-0.69851 z m -24.04728,-2.79375 c 3.17818,-0.0403 8.37883,-0.0403 11.55701,0 3.17817,0.0403 0.57785,0.0733 -5.77851,0.0733 -6.35635,0 -8.95667,-0.033 -5.7785,-0.0733 z m -24.39798,-3.23874 c 0.005,-0.4191 0.0621,-0.5598 0.1265,-0.31266 0.0644,0.24714 0.0602,0.59003 -0.009,0.762 -0.0696,0.17196 -0.12227,-0.0302 -0.11709,-0.44934 z m 18.4375,-12.25255 c 0.73811,-0.0515 1.88111,-0.0509 2.54,10e-4 0.65889,0.0521 0.055,0.0942 -1.34202,0.0936 -1.397,-7.6e-4 -1.93609,-0.0433 -1.19798,-0.0948 z m 9.77048,-1.5e-4 c 0.80328,-0.0504 2.11773,-0.0504 2.92101,0 0.80327,0.0504 0.14605,0.0917 -1.46051,0.0917 -1.60655,0 -2.26377,-0.0412 -1.4605,-0.0917 z m -13.589,-4.55252 c 0.17463,-0.0705 0.46038,-0.0705 0.635,0 0.17463,0.0705 0.0317,0.12812 -0.3175,0.12812 -0.34925,0 -0.49212,-0.0576 -0.3175,-0.12812 z m -7.239,-0.26087 c 0.24448,-0.0639 0.64453,-0.0639 0.889,0 0.24448,0.0639 0.0444,0.11616 -0.4445,0.11616 -0.48895,0 -0.68897,-0.0523 -0.4445,-0.11616 z"
         style="fill:#adb3c7;stroke-width:0.254" />
      <path
         id="path86"
         d="m 278.88578,235.84022 c 0.66779,-0.0525 1.69649,-0.0519 2.286,0.002 0.58951,0.0533 0.0431,0.0962 -1.21417,0.0954 -1.2573,-7.7e-4 -1.73962,-0.0444 -1.07183,-0.0968 z m 57.404,0 c 0.66779,-0.0525 1.69649,-0.0519 2.286,0.002 0.58951,0.0533 0.0431,0.0962 -1.21416,0.0954 -1.2573,-7.7e-4 -1.73963,-0.0444 -1.07184,-0.0968 z m 42.164,0 c 0.66779,-0.0525 1.69649,-0.0519 2.286,0.002 0.58951,0.0533 0.0431,0.0962 -1.21416,0.0954 -1.2573,-7.7e-4 -1.73963,-0.0444 -1.07184,-0.0968 z m 20.066,0 c 0.6678,-0.0525 1.6965,-0.0519 2.286,0.002 0.58952,0.0533 0.0431,0.0962 -1.21416,0.0954 -1.2573,-7.7e-4 -1.73963,-0.0444 -1.07184,-0.0968 z M 277.16034,197.03825 c 10e-6,-20.95501 0.0301,-29.48996 0.0668,-18.96657 0.0367,10.52338 0.0367,27.66839 -1e-5,38.10001 -0.0367,10.4316 -0.0667,1.82157 -0.0667,-19.13344 z m 105.41001,0 c 0,-20.95501 0.03,-29.48996 0.0668,-18.96657 0.0367,10.52338 0.0367,27.66839 -1e-5,38.10001 -0.0367,10.4316 -0.0668,1.82157 -0.0667,-19.13344 z m -93.02424,9.58875 c 3.17818,-0.0403 8.37883,-0.0403 11.55701,0 3.17817,0.0403 0.57785,0.0733 -5.77851,0.0733 -6.35635,0 -8.95667,-0.033 -5.7785,-0.0733 z m 19.70088,-0.23726 c 0.18336,-0.0734 0.40243,-0.0643 0.48683,0.02 0.0844,0.0844 -0.0656,0.14443 -0.33337,0.1334 -0.2959,-0.0122 -0.35608,-0.0724 -0.15346,-0.15346 z m -1.778,-5.334 c 0.18336,-0.0734 0.40243,-0.0643 0.48683,0.02 0.0844,0.0844 -0.0656,0.14443 -0.33337,0.1334 -0.2959,-0.0122 -0.35608,-0.0724 -0.15346,-0.15346 z m 15.30768,-8.61066 c 0.0122,-0.29589 0.0724,-0.35607 0.15346,-0.15346 0.0734,0.18336 0.0643,0.40244 -0.02,0.48683 -0.0844,0.0844 -0.14444,-0.0656 -0.13341,-0.33337 z m -5.75016,-10.01184 c 0,-3.98145 0.0351,-5.61021 0.078,-3.6195 0.0429,1.99074 0.0429,5.24828 0,7.23901 -0.0429,1.99072 -0.078,0.36194 -0.078,-3.61951 z m 5.75016,-9.80016 c 0.0122,-0.2959 0.0724,-0.35608 0.15346,-0.15346 0.0734,0.18336 0.0643,0.40243 -0.02,0.48683 -0.0844,0.0844 -0.14444,-0.0656 -0.13341,-0.33337 z m -15.81568,-8.91535 c 0.18336,-0.0734 0.40243,-0.0644 0.48683,0.02 0.0844,0.0844 -0.0656,0.14443 -0.33337,0.1334 -0.2959,-0.0122 -0.35608,-0.0724 -0.15346,-0.15345 z m 11.33465,-0.90599 -0.74602,-0.8255 0.8255,0.74602 c 0.76948,0.6954 0.94225,0.90498 0.74602,0.90498 -0.0437,0 -0.41519,-0.37148 -0.8255,-0.8255 z m -11.09356,-4.43414 c 0.31595,-0.0608 0.77315,-0.0584 1.016,0.005 0.24284,0.0636 -0.0157,0.11328 -0.57446,0.11046 -0.5588,-0.003 -0.7575,-0.0548 -0.44154,-0.11559 z"
         style="fill:#7583b2;stroke-width:0.254" />
      <path
         id="path84"
         d="m 300.65862,260.06135 c 0,-0.0528 0.20002,-0.25277 0.4445,-0.44451 0.40285,-0.31594 0.41184,-0.30696 0.0959,0.0959 -0.33182,0.42311 -0.5404,0.55765 -0.5404,0.34861 z m -8.63601,-4.572 c 0,-0.0527 0.20003,-0.25277 0.4445,-0.44451 0.40286,-0.31594 0.41185,-0.30696 0.0959,0.0959 -0.33182,0.42311 -0.54041,0.55765 -0.54041,0.34861 z m 2.54,-2.31711 c 0.47391,-0.48895 0.91881,-0.889 0.98866,-0.889 0.0699,0 -0.26075,0.40005 -0.73466,0.889 -0.4739,0.48895 -0.9188,0.889 -0.98865,0.889 -0.0699,0 0.26075,-0.40004 0.73465,-0.889 z m 14.22401,-0.71448 c 0,-0.0437 0.37147,-0.41519 0.8255,-0.8255 l 0.8255,-0.74602 -0.74603,0.8255 c -0.69539,0.76948 -0.90497,0.94225 -0.90497,0.74602 z m -11.303,-2.20652 c 0.54565,-0.5588 1.04924,-1.016 1.11909,-1.016 0.0699,0 -0.31944,0.4572 -0.86509,1.016 -0.54566,0.5588 -1.04925,1.016 -1.1191,1.016 -0.0699,0 0.31944,-0.4572 0.8651,-1.016 z m 7.32029,-13.97 c 0,-0.90805 0.0461,-1.27953 0.10245,-0.8255 0.0563,0.45402 0.0563,1.19697 0,1.651 -0.0564,0.45402 -0.10245,0.0825 -0.10245,-0.8255 z m 127.55393,-1.3335 c -0.53158,-1.17782 -22.73322,-75.2465 -22.73322,-75.84212 0,-0.68159 0.45923,-0.80238 3.05063,-0.80238 2.5813,0 2.79911,0.12615 3.39306,1.9651 0.21493,0.66544 4.74184,16.06889 10.05981,34.22989 5.31798,18.16101 9.78644,33.29457 9.92993,33.63015 0.1605,0.37534 0.35163,0.5194 0.49668,0.37435 0.12969,-0.12969 4.69494,-15.43469 10.145,-34.01114 5.45006,-18.57644 10.09147,-34.26134 10.31424,-34.85533 0.48296,-1.28776 0.75175,-1.3824 3.63788,-1.28096 1.65016,0.058 2.19187,0.16981 2.39601,0.49457 0.20223,0.32172 -2.3604,9.1515 -10.9839,37.846 -6.18622,20.58451 -11.40197,37.79785 -11.59054,38.25188 l -0.34288,0.8255 h -3.70007 -3.70007 z m 38.74126,0.3296 c -0.18199,-0.34005 -0.24468,-12.43683 -0.19944,-38.49028 0.0581,-33.44821 0.11156,-38.02319 0.44696,-38.23521 0.54438,-0.3441 38.23493,-0.33021 38.87869,0.0143 0.42492,0.2274 0.49132,0.54668 0.49132,2.3622 0,1.29409 -0.11692,2.21618 -0.3048,2.40406 -0.23074,0.23073 -4.26157,0.3048 -16.5862,0.3048 -12.32464,0 -16.35547,0.0741 -16.58621,0.3048 -0.45168,0.45169 -0.43929,29.29616 0.0127,29.58871 0.17463,0.11302 6.9469,0.26263 15.04951,0.33249 l 14.732,0.127 v 2.413 2.413 l -14.732,0.127 c -8.10261,0.0699 -14.87488,0.21948 -15.04951,0.3325 -0.24823,0.16065 -0.3175,3.55303 -0.3175,15.54856 0,14.90929 0.014,15.35052 0.49132,15.60601 0.32382,0.17331 5.9773,0.26294 16.5862,0.26294 12.17958,0 16.16903,0.0741 16.39969,0.3048 0.31712,0.31712 0.43162,3.64119 0.15062,4.37342 -0.13874,0.36154 -2.10896,0.40178 -19.67606,0.40178 -19.10314,0 -19.52757,-0.0106 -19.78729,-0.49591 z m -178.87011,-14.6636 c 0.18335,-0.0734 0.40243,-0.0644 0.48683,0.02 0.0844,0.0844 -0.0656,0.14443 -0.33337,0.1334 -0.2959,-0.0122 -0.35608,-0.0724 -0.15346,-0.15344 z m -23.24773,-7.0655 c 0.002,-0.6985 0.0512,-0.95411 0.10962,-0.56801 0.0584,0.3861 0.0568,0.9576 -0.003,1.27001 -0.0603,0.31239 -0.10805,-0.003 -0.10615,-0.702 z m -2.84659,-32.27917 c 0.0122,-0.2959 0.0724,-0.35608 0.15345,-0.15346 0.0734,0.18336 0.0643,0.40243 -0.02,0.48683 -0.0844,0.0844 -0.14443,-0.0656 -0.1334,-0.33337 z m -0.23395,-2.39184 c 0,-0.34925 0.0576,-0.49212 0.12811,-0.3175 0.0705,0.17463 0.0705,0.46038 0,0.635 -0.0705,0.17464 -0.12811,0.0318 -0.12811,-0.3175 z m -0.23518,-2.794 c 0,-0.48894 0.0523,-0.68896 0.11616,-0.4445 0.0639,0.24448 0.0639,0.64453 0,0.889 -0.0639,0.24448 -0.11616,0.0445 -0.11616,-0.4445 z m -0.24375,-3.048 c 0,-0.62865 0.0495,-0.88582 0.11008,-0.5715 0.0605,0.31433 0.0605,0.82868 0,1.14301 -0.0605,0.31432 -0.11008,0.0571 -0.11008,-0.57151 z m -0.24447,-4.191 c 0.002,-0.8382 0.0488,-1.15047 0.10537,-0.69395 0.0565,0.45653 0.0554,1.14233 -0.003,1.524 -0.058,0.38169 -0.1042,0.008 -0.10278,-0.83005 z m -0.0147,-9.90599 c 0.003,-0.5588 0.0548,-0.75749 0.11559,-0.44153 0.0608,0.31595 0.0584,0.77315 -0.005,1.01599 -0.0636,0.24285 -0.11328,-0.0157 -0.11046,-0.57446 z m 0.23005,-2.413 c 0,-0.34925 0.0577,-0.49212 0.12812,-0.3175 0.0705,0.17463 0.0705,0.46038 0,0.635 -0.0705,0.17463 -0.12812,0.0318 -0.12812,-0.3175 z m 0.23395,-1.41816 c 0.0122,-0.2959 0.0724,-0.35609 0.15346,-0.15346 0.0734,0.18335 0.0643,0.40243 -0.02,0.48683 -0.0844,0.0844 -0.14443,-0.0656 -0.13341,-0.33337 z m 40.57233,-8.66135 c 0.18336,-0.0734 0.40243,-0.0643 0.48683,0.02 0.0844,0.0844 -0.0656,0.14444 -0.33337,0.13341 -0.2959,-0.0122 -0.35608,-0.0724 -0.15346,-0.15346 z m -1.27,-0.254 c 0.18336,-0.0734 0.40243,-0.0644 0.48683,0.02 0.0844,0.0844 -0.0656,0.14444 -0.33337,0.13341 -0.2959,-0.0122 -0.35608,-0.0724 -0.15346,-0.15346 z m -1.27,-0.254 c 0.18336,-0.0734 0.40243,-0.0643 0.48683,0.02 0.0844,0.0844 -0.0656,0.14444 -0.33337,0.13341 -0.2959,-0.0122 -0.35608,-0.0724 -0.15346,-0.15346 z m -15.748,-1.778 c 0.18335,-0.0734 0.40243,-0.0643 0.48683,0.02 0.0844,0.0844 -0.0656,0.14444 -0.33337,0.13341 -0.2959,-0.0122 -0.35608,-0.0724 -0.15346,-0.15346 z m -3.82588,-0.24871 c 0.17463,-0.0705 0.46038,-0.0705 0.635,0 0.17463,0.0705 0.0317,0.12812 -0.3175,0.12812 -0.34925,0 -0.49212,-0.0576 -0.3175,-0.12812 z"
         style="fill:#8a8a8a;stroke-width:0.254" />
      <path
         id="path82"
         d="m 277.45995,235.6039 c -0.0931,-0.0931 -0.16934,-17.40555 -0.16934,-38.47206 v -38.30272 l 0.52908,-0.28316 c 0.37856,-0.2026 4.94915,-0.25426 16.0655,-0.18158 14.95807,0.0978 15.61031,0.12195 17.52117,0.64898 2.87458,0.79283 4.86837,1.93863 6.9275,3.98116 1.29668,1.28622 2.05973,2.31858 2.72791,3.69071 1.79004,3.67593 1.82185,3.95307 1.82185,15.875 0,9.38891 -0.0536,10.86596 -0.44709,12.319 -1.23517,4.56117 -3.94196,7.97155 -7.82966,9.86486 -3.56864,1.73793 -4.38442,1.81914 -18.27224,1.81914 -7.93742,0 -12.39158,0.0922 -12.71071,0.26294 -0.47641,0.25497 -0.49131,0.678 -0.49131,13.95347 0,8.28067 -0.0979,13.94798 -0.24771,14.34206 -0.24278,0.63857 -0.29755,0.65154 -2.75167,0.65154 -1.37717,0 -2.58015,-0.0762 -2.67328,-0.16934 z m 31.37766,-34.6581 c 3.96937,-0.83589 6.59417,-3.42338 7.76484,-7.65442 0.37917,-1.37041 0.43914,-2.8531 0.43914,-10.85813 0,-8.00504 -0.06,-9.48772 -0.43914,-10.85815 -1.17934,-4.26239 -3.67743,-6.70227 -7.74462,-7.5641 -2.30356,-0.48812 -24.93984,-0.54953 -25.42042,-0.069 -0.23143,0.23143 -0.3048,4.71499 -0.3048,18.62665 0,10.07704 0.0762,18.39808 0.16934,18.4912 0.30115,0.30115 24.06806,0.19495 25.53566,-0.1141 z m 25.90781,34.52265 c -0.23436,-0.23437 -0.3048,-9.09483 -0.3048,-38.33587 0,-35.1397 0.0322,-38.0632 0.42285,-38.45391 0.57074,-0.57074 4.7948,-0.46244 5.17068,0.13257 0.1453,0.23001 0.24223,7.13055 0.24458,17.41171 0.003,12.90304 0.0778,17.10456 0.30869,17.33549 0.23125,0.23127 4.53656,0.30388 17.8435,0.30093 9.64628,-0.002 17.67921,-0.0931 17.85094,-0.20225 0.24084,-0.15299 0.32796,-4.13531 0.381,-17.41566 0.0667,-16.70828 0.0833,-17.22797 0.56181,-17.57777 0.63213,-0.46213 4.18151,-0.49392 4.79422,-0.0429 0.40302,0.29664 0.42707,2.83799 0.36605,38.67149 l -0.0653,38.35402 -2.6064,0.0724 c -2.60103,0.0723 -2.60691,0.0711 -2.8575,-0.58803 -0.15664,-0.41201 -0.2511,-7.23703 -0.2511,-18.14274 0,-15.70725 -0.0408,-17.49795 -0.40178,-17.63648 -0.22097,-0.0848 -8.25626,-0.15418 -17.8562,-0.15418 -13.23699,0 -17.52807,0.0736 -17.75922,0.3048 -0.23123,0.23124 -0.3048,4.572 -0.3048,17.98321 0,13.4112 -0.0736,17.75198 -0.3048,17.9832 -0.19241,0.19241 -1.15711,0.3048 -2.6162,0.3048 -1.45909,0 -2.4238,-0.11239 -2.6162,-0.3048 z m 62.07938,-0.097 c -0.0848,-0.22096 -0.15418,-17.47211 -0.15418,-38.33585 0,-35.04924 0.0322,-37.96624 0.42285,-38.35694 0.57075,-0.57074 4.7948,-0.46244 5.17069,0.13257 0.38425,0.60826 0.32864,76.27224 -0.0563,76.65721 -0.19514,0.19513 -1.19058,0.3048 -2.76682,0.3048 -2.01074,0 -2.49029,-0.0737 -2.6162,-0.40179 z"
         style="fill:#6c7db5;stroke-width:0.254" />
      <path
         id="path80"
         d="m 239.82817,292.66512 c 0.0878,-0.14198 0.26595,-0.19239 0.39599,-0.11201 0.35231,0.21771 0.28662,0.37013 -0.15954,0.37013 -0.21779,0 -0.32419,-0.11617 -0.23645,-0.25812 z m 0.77029,-0.23233 c -0.0804,-0.13004 -0.0123,-0.31916 0.15125,-0.42025 0.17726,-0.10954 0.2296,-0.0741 0.12957,0.0878 -0.0923,0.14935 -0.0242,0.32944 0.15125,0.4002 0.22838,0.0921 0.23309,0.13434 0.0166,0.14868 -0.16638,0.011 -0.36827,-0.0863 -0.44864,-0.21639 z m 15.35615,-5.98654 c 0.34925,-0.19964 0.7493,-0.363 0.889,-0.363 0.1397,0 -0.0317,0.16336 -0.381,0.363 -0.34925,0.19964 -0.7493,0.363 -0.889,0.363 -0.1397,0 0.0317,-0.16336 0.381,-0.363 z m 13.716,-6.58614 c 0,-0.0699 0.2286,-0.24932 0.508,-0.39886 0.2794,-0.14952 0.508,-0.21472 0.508,-0.14488 0,0.0699 -0.2286,0.24935 -0.508,0.39889 -0.2794,0.14952 -0.508,0.21472 -0.508,0.14485 z m 0,-7.09877 c 0,-0.0528 0.20003,-0.25277 0.4445,-0.4445 0.40286,-0.31594 0.41185,-0.30696 0.0959,0.0959 -0.33181,0.42309 -0.5404,0.55764 -0.5404,0.34859 z m 27.68601,-10.15999 c 0,-0.0528 0.20002,-0.25276 0.4445,-0.4445 0.40285,-0.31594 0.41184,-0.30696 0.0959,0.0959 -0.33182,0.42312 -0.5404,0.55766 -0.5404,0.34861 z m 1.27,-1.01599 c 0,-0.0528 0.20002,-0.25277 0.4445,-0.4445 0.40285,-0.31595 0.41184,-0.30696 0.0959,0.0959 -0.33182,0.4231 -0.5404,0.55763 -0.5404,0.3486 z m -13.71601,-0.254 c 0,-0.0528 0.20003,-0.25277 0.4445,-0.4445 0.40286,-0.31595 0.41185,-0.30696 0.0959,0.0959 -0.33181,0.4231 -0.5404,0.55765 -0.5404,0.3486 z m 14.98601,-0.762 c 0,-0.0528 0.20002,-0.25277 0.4445,-0.4445 0.40285,-0.31595 0.41184,-0.30696 0.0959,0.0959 -0.33182,0.4231 -0.5404,0.55765 -0.5404,0.3486 z m -13.71601,-0.254 c 0,-0.0528 0.20003,-0.25277 0.4445,-0.4445 0.40286,-0.31595 0.41185,-0.30696 0.0959,0.0959 -0.33181,0.4231 -0.5404,0.55765 -0.5404,0.3486 z m 1.651,-1.4281 c 0.25286,-0.2794 0.51689,-0.508 0.58674,-0.508 0.0698,0 -0.0799,0.2286 -0.33274,0.508 -0.25285,0.2794 -0.51688,0.508 -0.58673,0.508 -0.0699,0 0.0799,-0.2286 0.33273,-0.508 z m 15.49401,-1.27 c 0.25285,-0.2794 0.51688,-0.508 0.58673,-0.508 0.0699,0 -0.0799,0.2286 -0.33273,0.508 -0.25286,0.2794 -0.51689,0.508 -0.58674,0.508 -0.0699,0 0.0799,-0.2286 0.33274,-0.508 z m 1.651,-1.33986 c 0,-0.0384 0.88582,-0.92425 1.9685,-1.9685 l 1.9685,-1.89864 -1.89865,1.9685 c -1.76341,1.8283 -2.03835,2.08439 -2.03835,1.89864 z m -11.81101,-1.70814 c 0.25286,-0.2794 0.51689,-0.508 0.58674,-0.508 0.0699,0 -0.0799,0.2286 -0.33274,0.508 -0.25285,0.2794 -0.51688,0.508 -0.58673,0.508 -0.0699,0 0.0799,-0.2286 0.33273,-0.508 z m 2.92101,-2.667 c 0.3281,-0.34925 0.6537,-0.635 0.72355,-0.635 0.0699,0 -0.14145,0.28575 -0.46955,0.635 -0.32811,0.34925 -0.65371,0.635 -0.72356,0.635 -0.0699,0 0.14145,-0.28575 0.46956,-0.635 z m 14.478,-1.524 c 0.3281,-0.34925 0.6537,-0.635 0.72355,-0.635 0.0698,0 -0.14145,0.28575 -0.46955,0.635 -0.32811,0.34925 -0.65371,0.635 -0.72356,0.635 -0.0699,0 0.14145,-0.28575 0.46956,-0.635 z m -11.938,-1.2389 c 0,-0.0528 0.20002,-0.25277 0.4445,-0.4445 0.40285,-0.31595 0.41184,-0.30696 0.0959,0.0959 -0.33182,0.4231 -0.5404,0.55765 -0.5404,0.3486 z m 12.954,0 c 0,-0.0528 0.20002,-0.25277 0.4445,-0.4445 0.40286,-0.31595 0.41184,-0.30696 0.0959,0.0959 -0.33182,0.4231 -0.5404,0.55765 -0.5404,0.3486 z m 6.11605,-10.97427 c 0.0122,-0.2959 0.0724,-0.35608 0.15346,-0.15346 0.0734,0.18336 0.0643,0.40243 -0.02,0.48684 -0.0844,0.0844 -0.14444,-0.0656 -0.13341,-0.33338 z m 0.254,-1.016 c 0.0122,-0.2959 0.0724,-0.35608 0.15346,-0.15346 0.0734,0.18336 0.0643,0.40243 -0.02,0.48684 -0.0844,0.0844 -0.14444,-0.0656 -0.13341,-0.33338 z m 0.02,-2.64583 c 0,-0.34925 0.0576,-0.49213 0.12812,-0.3175 0.0705,0.17462 0.0705,0.46037 0,0.635 -0.0705,0.17462 -0.12812,0.0318 -0.12812,-0.3175 z m -0.27405,-1.16417 c 0.0122,-0.2959 0.0724,-0.35608 0.15346,-0.15346 0.0734,0.18336 0.0643,0.40243 -0.02,0.48684 -0.0844,0.0844 -0.14444,-0.0656 -0.13341,-0.33338 z m -0.74541,-2.07433 c -0.27717,-0.64771 -0.2709,-0.66265 0.0862,-0.20546 0.21182,0.27118 0.38513,0.5855 0.38513,0.6985 0,0.38606 -0.1723,0.20583 -0.47136,-0.49304 z m -15.42778,-2.921 -0.48386,-0.5715 0.5715,0.48386 c 0.53706,0.45472 0.68713,0.65914 0.48386,0.65914 -0.0482,0 -0.30537,-0.25718 -0.5715,-0.5715 z m 12.83746,-0.635 -0.87532,-0.9525 0.9525,0.87532 c 0.52387,0.48143 0.9525,0.91006 0.9525,0.9525 0,0.19396 -0.21494,0.0112 -1.02968,-0.87532 z m -14.24273,-0.762 c -0.31594,-0.40286 -0.30695,-0.41185 0.0959,-0.0959 0.4231,0.33181 0.55765,0.5404 0.3486,0.5404 -0.0528,0 -0.25277,-0.20003 -0.44451,-0.4445 z m 0.98491,-5.05772 c 0.17462,-0.0705 0.46037,-0.0705 0.635,0 0.17462,0.0705 0.0317,0.12811 -0.3175,0.12811 -0.34925,0 -0.49213,-0.0576 -0.3175,-0.12811 z m -1.39217,-0.2618 c 0.24713,-0.0644 0.59003,-0.0602 0.762,0.009 0.17196,0.0696 -0.0302,0.12227 -0.44933,0.11709 -0.4191,-0.005 -0.55981,-0.0621 -0.31267,-0.1265 z m -1.78283,-0.25307 c 0.24447,-0.0639 0.64452,-0.0639 0.889,0 0.24447,0.0639 0.0445,0.11616 -0.4445,0.11616 -0.48895,0 -0.68898,-0.0523 -0.4445,-0.11616 z m -1.77317,-0.25493 c 0.24713,-0.0644 0.59003,-0.0602 0.762,0.009 0.17196,0.0696 -0.0302,0.12227 -0.44933,0.11709 -0.4191,-0.005 -0.55981,-0.0621 -0.31267,-0.1265 z m -4.64034,-0.33198 c 0,-0.1397 0.12105,-0.254 0.269,-0.254 0.14794,0 0.19834,0.1143 0.112,0.254 -0.0863,0.1397 -0.20738,0.254 -0.26899,0.254 -0.0616,0 -0.11201,-0.1143 -0.11201,-0.254 z m 1.8415,0.0721 c 0.38418,-0.0582 1.01283,-0.0582 1.397,0 0.38418,0.0582 0.0699,0.10581 -0.6985,0.10581 -0.76835,0 -1.08267,-0.0476 -0.6985,-0.10581 z m -27.98344,-8.85624 c 0.0122,-0.2959 0.0724,-0.35608 0.15345,-0.15346 0.0734,0.18336 0.0643,0.40243 -0.02,0.48683 -0.0844,0.0844 -0.14443,-0.0656 -0.1334,-0.33337 z m -0.762,-2.54 c 0.0122,-0.2959 0.0724,-0.35608 0.15345,-0.15346 0.0734,0.18336 0.0643,0.40243 -0.02,0.48683 -0.0844,0.0844 -0.14443,-0.0656 -0.1334,-0.33337 z m 4.064,-2.032 c 0.0122,-0.2959 0.0724,-0.35608 0.15345,-0.15346 0.0734,0.18335 0.0643,0.40243 -0.02,0.48683 -0.0844,0.0844 -0.14443,-0.0656 -0.1334,-0.33337 z m -0.99595,-11.02784 c 0,-0.34925 0.0577,-0.49212 0.12811,-0.3175 0.0705,0.17463 0.0705,0.46038 0,0.635 -0.0705,0.17463 -0.12811,0.0318 -0.12811,-0.3175 z m -0.23518,-2.286 c 0,-0.48895 0.0523,-0.68897 0.11616,-0.4445 0.0639,0.24448 0.0639,0.64453 0,0.889 -0.0639,0.24448 -0.11616,0.0445 -0.11616,-0.4445 z m -0.24887,-2.159 c 0.003,-0.5588 0.0548,-0.75749 0.11559,-0.44153 0.0607,0.31595 0.0584,0.77315 -0.005,1.016 -0.0636,0.24284 -0.11329,-0.0157 -0.11047,-0.57447 z m -0.254,-2.286 c 0.003,-0.5588 0.0548,-0.75749 0.11559,-0.44153 0.0608,0.31595 0.0584,0.77315 -0.005,1.016 -0.0636,0.24284 -0.11329,-0.0157 -0.11047,-0.57447 z m -7.664,-0.0212 c 0.0122,-0.2959 0.0724,-0.35609 0.15345,-0.15346 0.0734,0.18335 0.0643,0.40243 -0.02,0.48683 -0.0844,0.0844 -0.14443,-0.0656 -0.1334,-0.33337 z m -0.254,-1.016 c 0.0122,-0.2959 0.0724,-0.35609 0.15345,-0.15346 0.0734,0.18335 0.0643,0.40243 -0.02,0.48683 -0.0844,0.0844 -0.14443,-0.0656 -0.1334,-0.33337 z m 7.66912,-1.37585 c 0,-0.62865 0.0495,-0.88582 0.11008,-0.5715 0.0605,0.31433 0.0605,0.82868 0,1.143 -0.0605,0.31433 -0.11008,0.0571 -0.11008,-0.5715 z m -7.90307,0.254 c 0,-0.34925 0.0577,-0.49212 0.12811,-0.3175 0.0705,0.17463 0.0705,0.46038 0,0.635 -0.0705,0.17463 -0.12811,0.0317 -0.12811,-0.3175 z m -0.254,-1.27 c 0,-0.34925 0.0576,-0.49212 0.12811,-0.3175 0.0705,0.17463 0.0705,0.46038 0,0.635 -0.0705,0.17463 -0.12811,0.0318 -0.12811,-0.3175 z m 7.89795,-1.397 c 0.003,-0.5588 0.0548,-0.75749 0.11559,-0.44153 0.0607,0.31595 0.0584,0.77315 -0.005,1.016 -0.0636,0.24284 -0.11329,-0.0157 -0.11047,-0.57447 z m -8.15195,0.127 c 0,-0.34925 0.0576,-0.49212 0.12811,-0.3175 0.0705,0.17463 0.0705,0.46038 0,0.635 -0.0705,0.17463 -0.12811,0.0318 -0.12811,-0.3175 z m -0.254,-1.27 c 0,-0.34925 0.0577,-0.49212 0.12811,-0.3175 0.0705,0.17463 0.0705,0.46038 0,0.635 -0.0705,0.17463 -0.12811,0.0318 -0.12811,-0.3175 z m 8.15195,-1.143 c 0.003,-0.5588 0.0548,-0.75749 0.11559,-0.44153 0.0608,0.31595 0.0584,0.77315 -0.005,1.016 -0.0636,0.24284 -0.11329,-0.0157 -0.11047,-0.57447 z m -8.40595,-0.127 c 0,-0.34925 0.0576,-0.49212 0.12811,-0.3175 0.0705,0.17463 0.0705,0.46038 0,0.635 -0.0705,0.17463 -0.12811,0.0317 -0.12811,-0.3175 z m 8.14682,-2.286 c 0,-0.48895 0.0523,-0.68897 0.11616,-0.4445 0.0639,0.24448 0.0639,0.64453 0,0.889 -0.0639,0.24448 -0.11616,0.0444 -0.11616,-0.4445 z m -0.26341,-2.667 c 0.005,-0.4191 0.0621,-0.5598 0.1265,-0.31266 0.0644,0.24713 0.0602,0.59003 -0.009,0.762 -0.0696,0.17196 -0.12227,-0.0302 -0.11709,-0.44934 z m -0.254,-2.794 c 0.005,-0.4191 0.0621,-0.5598 0.1265,-0.31266 0.0644,0.24713 0.0602,0.59003 -0.009,0.762 -0.0696,0.17196 -0.12227,-0.0302 -0.11709,-0.44934 z m -0.24459,-3.683 c 0,-0.48895 0.0523,-0.68897 0.11616,-0.4445 0.0639,0.24448 0.0639,0.64453 0,0.889 -0.0639,0.24448 -0.11616,0.0445 -0.11616,-0.4445 z m -8.92887,-0.40216 c 0.0122,-0.2959 0.0724,-0.35608 0.15345,-0.15346 0.0734,0.18335 0.0643,0.40243 -0.02,0.48683 -0.0844,0.0844 -0.14443,-0.0656 -0.1334,-0.33337 z m 8.71382,-6.96384 c 0,-1.74625 0.0406,-2.46063 0.0902,-1.5875 0.0496,0.87312 0.0496,2.30187 0,3.175 -0.0496,0.87313 -0.0902,0.15875 -0.0902,-1.5875 z m 0.17618,-5.99017 c 0.0122,-0.2959 0.0724,-0.35608 0.15345,-0.15346 0.0734,0.18335 0.0643,0.40243 -0.02,0.48683 -0.0844,0.0844 -0.14443,-0.0656 -0.1334,-0.33337 z m -7.12428,-4.80484 c 0,-0.1397 0.1108,-0.42545 0.24622,-0.635 0.13543,-0.20955 0.24622,-0.2667 0.24622,-0.127 0,0.1397 -0.11079,0.42545 -0.24622,0.635 -0.13542,0.20955 -0.24622,0.2667 -0.24622,0.127 z m 8.37422,-0.54412 c 0,-0.13628 0.17776,-0.46965 0.39502,-0.74083 0.37245,-0.4649 0.37774,-0.45679 0.0926,0.14195 -0.37028,0.77751 -0.48761,0.9216 -0.48761,0.59888 z m 1.143,-1.86888 c 0.25286,-0.2794 0.51689,-0.508 0.58674,-0.508 0.0698,0 -0.0799,0.2286 -0.33274,0.508 -0.25285,0.2794 -0.51688,0.508 -0.58673,0.508 -0.0699,0 0.0799,-0.2286 0.33273,-0.508 z m 8.46138,-1.95151 c 0.18335,-0.0734 0.40243,-0.0643 0.48683,0.02 0.0844,0.0844 -0.0656,0.14444 -0.33337,0.13341 -0.2959,-0.0122 -0.35608,-0.0724 -0.15346,-0.15346 z m 5.19596,-0.25651 c 0.24713,-0.0644 0.59003,-0.0602 0.762,0.009 0.17196,0.0696 -0.0302,0.12227 -0.44934,0.11709 -0.4191,-0.005 -0.5598,-0.0621 -0.31266,-0.1265 z m 18.15617,-0.0112 c 0.73342,-0.0513 1.93357,-0.0513 2.667,0 0.73342,0.0513 0.13335,0.0933 -1.3335,0.0933 -1.46685,0 -2.06693,-0.042 -1.3335,-0.0933 z m 3.57187,-2.27225 c 0.18336,-0.0734 0.40243,-0.0644 0.48683,0.02 0.0844,0.0844 -0.0656,0.14444 -0.33337,0.13341 -0.2959,-0.0122 -0.35608,-0.0724 -0.15346,-0.15346 z m -1.53987,-0.24871 c 0.17462,-0.0705 0.46037,-0.0705 0.635,0 0.17462,0.0705 0.0317,0.12812 -0.3175,0.12812 -0.34925,0 -0.49213,-0.0576 -0.3175,-0.12812 z m -38.41751,-1.10179 c 0.54566,-0.5588 1.04925,-1.016 1.1191,-1.016 0.0699,0 -0.31944,0.4572 -0.8651,1.016 -0.54565,0.5588 -1.04925,1.016 -1.1191,1.016 -0.0699,0 0.31945,-0.4572 0.8651,-1.016 z m 36.76651,0.84091 c 0.24447,-0.0639 0.64452,-0.0639 0.889,0 0.24447,0.0639 0.0444,0.11616 -0.4445,0.11616 -0.48895,0 -0.68898,-0.0523 -0.4445,-0.11616 z m -2.15604,-0.25855 c 0.31595,-0.0608 0.77315,-0.0584 1.016,0.005 0.24284,0.0636 -0.0157,0.11328 -0.57446,0.11046 -0.5588,-0.003 -0.7575,-0.0548 -0.44154,-0.11559 z m -2.54297,-0.25362 c 0.31433,-0.0605 0.82868,-0.0605 1.14301,0 0.31432,0.0605 0.0572,0.11008 -0.57151,0.11008 -0.62865,0 -0.88582,-0.0495 -0.5715,-0.11008 z m -2.28303,-0.25438 c 0.31595,-0.0608 0.77315,-0.0584 1.016,0.005 0.24284,0.0636 -0.0157,0.11328 -0.57447,0.11046 -0.5588,-0.003 -0.75749,-0.0548 -0.44153,-0.11559 z m -3.17797,-0.25629 c 0.38418,-0.0582 1.01283,-0.0582 1.397,0 0.38418,0.0582 0.0699,0.10582 -0.6985,0.10582 -0.76835,0 -1.08267,-0.0476 -0.6985,-0.10582 z m -3.17203,-0.25171 c 0.31595,-0.0608 0.77315,-0.0584 1.016,0.005 0.24284,0.0636 -0.0157,0.11328 -0.57447,0.11046 -0.5588,-0.003 -0.75749,-0.0548 -0.44153,-0.11559 z m -7.87697,-0.49658 c 0.17463,-0.0705 0.46038,-0.0705 0.635,0 0.17463,0.0705 0.0317,0.12812 -0.3175,0.12812 -0.34925,0 -0.49212,-0.0576 -0.3175,-0.12812 z m -13.95412,-0.25929 c 0.18335,-0.0734 0.40243,-0.0643 0.48683,0.02 0.0844,0.0844 -0.0656,0.14443 -0.33337,0.13341 -0.2959,-0.0122 -0.35609,-0.0724 -0.15346,-0.15346 z m 4.30212,-0.0125 c 0.59373,-0.0535 1.56528,-0.0535 2.159,0 0.59373,0.0535 0.10795,0.0972 -1.0795,0.0972 -1.18745,0 -1.67322,-0.0438 -1.0795,-0.0972 z"
         style="fill:#5f5f5f;stroke-width:0.254" />
      <path
         id="path78"
         d="m 240.20661,292.60753 c 0.0699,-0.0687 6.69947,-4.51925 14.73249,-9.89022 8.03302,-5.37097 17.06272,-11.60109 20.066,-13.84472 17.88441,-13.36072 22.56383,-17.47739 26.48469,-23.29967 2.71825,-4.03647 3.62828,-6.70558 3.43349,-10.07045 -0.24814,-4.28654 -2.81055,-7.59357 -9.21767,-11.89623 -1.9558,-1.31342 -3.66529,-2.4857 -3.79888,-2.60508 -0.47974,-0.42876 7.14739,0.50845 10.78389,1.32509 9.15508,2.05593 14.16136,6.0428 15.25214,12.14641 0.2702,1.51195 0.24649,1.90395 -0.21739,3.59432 -1.93213,7.04054 -8.04507,14.64179 -18.42701,22.91344 -11.37623,9.06383 -25.69948,17.46321 -43.85175,25.71538 -5.38257,2.44696 -15.8434,6.50481 -15.24,5.91173 z m 27.53363,-73.79268 c -0.15365,-0.10264 -0.76458,-1.8861 -1.35761,-3.96324 -0.59303,-2.07715 -1.58199,-5.37235 -2.19769,-7.32268 -2.15441,-6.82445 -4.05805,-14.40687 -5.95447,-23.71722 -3.24725,-15.94224 -2.55281,-27.80204 2.08461,-35.60103 1.18059,-1.98546 3.61124,-4.55027 4.46777,-4.71437 0.38322,-0.0734 4.35436,-0.0338 8.82476,0.088 16.32412,0.44475 34.3471,2.58502 36.78604,4.36842 0.37702,0.27568 -2.43795,0.33159 -16.38741,0.32548 -17.2442,-0.007 -19.76223,0.10198 -23.89334,1.03935 -2.27414,0.51601 -3.20473,1.38569 -3.96906,3.70924 -0.90884,2.76286 -1.154,5.12824 -1.13921,10.99148 0.0177,7.00898 0.82348,17.04565 2.39616,29.84499 1.27927,10.41142 1.79362,18.95216 1.39581,23.17752 -0.17973,1.90902 -0.37171,2.23142 -1.05636,1.7741 z"
         style="fill:#010101;stroke-width:0.254" />
    </g>
  </g>
</svg>
